<svg xmlns="http://www.w3.org/2000/svg" viewBox="0 0 240 48" fill="none" role="img" aria-label="JobTrack AI">
  <defs>
    <linearGradient id="logo-gradient" x1="4" y1="4" x2="44" y2="44" gradientUnits="userSpaceOnUse">
      <stop offset="0%" stop-color="#3B82F6"/>
      <stop offset="50%" stop-color="#6366F1"/>
      <stop offset="100%" stop-color="#8B5CF6"/>
    </linearGradient>
    <linearGradient id="logo-text" x1="56" y1="8" x2="236" y2="40" gradientUnits="userSpaceOnUse">
      <stop offset="0%" stop-color="#1E293B"/>
      <stop offset="100%" stop-color="#334155"/>
    </linearGradient>
  </defs>
  <rect x="4" y="4" width="40" height="40" rx="10" fill="url(#logo-gradient)"/>
  <path d="M14 34V14h6.5c4 0 6.5 2.4 6.5 5.9 0 2.4-1.2 4.2-3.1 5.2L28 34h-5.5l-3.7-6.3h-1.3V34H14zm6.1-10.1h1c1.5 0 2.4-.8 2.4-2.1 0-1.3-.9-2.1-2.4-2.1h-1v4.2z" fill="#FFFFFF"/>
  <path d="M30.5 34V14h5.5l5.7 11.1V14H46v20h-5.5l-5.7-11.1V34h-4.3z" fill="#FFFFFF" fill-opacity="0.92"/>
  <text x="56" y="32" fill="url(#logo-text)" font-family="system-ui, -apple-system, 'Segoe UI', sans-serif" font-size="22" font-weight="700" letter-spacing="-0.02em">JobTrack</text>
  <text x="158" y="32" fill="#6366F1" font-family="system-ui, -apple-system, 'Segoe UI', sans-serif" font-size="22" font-weight="700" letter-spacing="-0.02em"> AI</text>
</svg>
