<svg xmlns="http://www.w3.org/2000/svg" viewBox="0 0 64 64" fill="none" role="img" aria-label="JobTrack AI">
  <defs>
    <linearGradient id="jt-gradient" x1="8" y1="8" x2="56" y2="56" gradientUnits="userSpaceOnUse">
      <stop offset="0%" stop-color="#3B82F6"/>
      <stop offset="50%" stop-color="#6366F1"/>
      <stop offset="100%" stop-color="#8B5CF6"/>
    </linearGradient>
    <linearGradient id="jt-shine" x1="16" y1="12" x2="48" y2="52" gradientUnits="userSpaceOnUse">
      <stop offset="0%" stop-color="#FFFFFF" stop-opacity="0.35"/>
      <stop offset="100%" stop-color="#FFFFFF" stop-opacity="0"/>
    </linearGradient>
  </defs>
  <rect x="4" y="4" width="56" height="56" rx="14" fill="url(#jt-gradient)"/>
  <rect x="4" y="4" width="56" height="56" rx="14" fill="url(#jt-shine)"/>
  <path d="M20 44V20h8.5c5.2 0 8.5 3.1 8.5 7.6 0 3.1-1.5 5.4-4.1 6.6L38 44h-7.2l-4.8-8.2H28v8.2H20zm8-13.2h1.3c2 0 3.1-1 3.1-2.7 0-1.7-1.1-2.7-3.1-2.7H28v5.4z" fill="#FFFFFF"/>
  <path d="M40 44V20h7.2l7.4 14.5V20H62v24h-7.2L47.4 29.5V44H40z" fill="#FFFFFF" fill-opacity="0.92"/>
  <circle cx="52" cy="16" r="2" fill="#FFFFFF" fill-opacity="0.55"/>
</svg>
